<?xml version="1.0" encoding="UTF-8" standalone="no"?>
<svg xmlns:rdf="http://www.w3.org/1999/02/22-rdf-syntax-ns#" xmlns="http://www.w3.org/2000/svg" xml:space="preserve" height="59.198" viewBox="0 0 50.698997 59.198001" width="50.699" version="1.1" enable-background="new 0 0 77 77.006" y="0px" x="0px" xmlns:cc="http://creativecommons.org/ns#" xmlns:dc="http://purl.org/dc/elements/1.1/">
<path id="bgColor00" d="m25.354 19.902c4.169 0.004 8.095 0.318 10.005 0.5l0.377-0.988-0.002-2.218c0-2.163-0.656-2.618-2.611-3.971l-0.978-0.684c-1.108-0.736-1.255-1.473-1.255-2.1v-0.845l-0.845-0.029h-0.028v-1.153h0.938v-5.2l-0.899-0.263c-0.047-0.015-0.656-0.19-1.562-0.357v-2.15l-0.513-0.065-2.677-0.379-3.293 0.466 0.101 0.598v1.547c-0.854 0.161-1.423 0.326-1.468 0.339l-0.899 0.265v5.201h0.935v1.153h-0.871v0.874c0 0.626-0.146 1.363-1.234 2.085-0.021 0.014-0.758 0.535-0.758 0.535-2.191 1.537-2.852 2-2.852 4.134l-0.003 2.173c0 0.427 0.104 0.759 0.255 1.043 1.864-0.179 5.882-0.507 10.137-0.511zm-1.814-18.226c0.615-0.088 1.765-0.249 1.765-0.249s1.092 0.155 1.761 0.249v0.708c-0.537-0.059-1.115-0.098-1.71-0.1-0.634 0.002-1.249 0.047-1.815 0.112v-0.72zm-1.29 3.47c0.759-0.161 1.882-0.353 3.105-0.357 1.218 0.004 2.337 0.196 3.094 0.355v1.339c-0.777-0.263-1.769-0.547-2.841-0.712-1.271-0.189-2.487-0.188-3.358-0.147v-0.478zm-0.003 3.269h0.004v-1.22c0.798-0.041 1.944-0.049 3.124 0.126 1.208 0.186 2.326 0.547 3.075 0.825v0.134 0.135 0.239c-0.831-0.155-1.933-0.306-3.096-0.31-1.167 0.004-2.272 0.155-3.107 0.31v-0.239zm-9.541 16.688-8.68-5.016-1.254 2.171 8.682 5.016 1.252-2.171zm35.225-2.844-1.254-2.171-8.684 5.014 1.252 2.171 8.686-5.014zm-37.903 10.338h-10.028v2.506h10.027v-2.506zm21.899 15.148 5.012 8.685 2.17-1.253-5.012-8.685-2.17 1.253zm6.067-5.15 8.684 5.016 1.254-2.171-8.686-5.016-1.252 2.171zm2.678-9.998v2.506h10.027v-2.506h-10.027zm-7.128 8.014v-18.546c0-0.086-0.016-0.167-0.023-0.249-0.9-0.071-1.963-0.145-3.139-0.206 0.073 0.139 0.131 0.288 0.131 0.455v18.546c0 0.59-0.48 1.069-1.072 1.069h-0.418c0.062-0.279 0.098-0.569 0.098-0.871v-17.822c0-0.522-0.126-0.998-0.302-1.447-1.108-0.043-2.274-0.069-3.465-0.071-1.191 0.002-2.36 0.028-3.473 0.071-0.18 0.449-0.311 0.924-0.311 1.447v17.822c0 0.302 0.037 0.592 0.099 0.871h-0.414c-0.592 0-1.072-0.479-1.072-1.069v-18.546c0-0.167 0.058-0.316 0.131-0.455-1.176 0.061-2.238 0.137-3.139 0.206-0.008 0.083-0.023 0.163-0.023 0.249v18.546c0 2.261 1.84 4.102 4.104 4.102h8.186c2.263 0 4.102-1.841 4.102-4.102zm-7.455 0.198c0 0.435-0.229 0.871-0.741 0.871-0.515 0-0.745-0.437-0.745-0.871v-17.822c0-0.435 0.23-0.872 0.745-0.872 0.481-0.067 0.741 0.417 0.741 0.872v17.822zm-1.99 18.389h2.506v-10.027h-2.506v10.027zm-12.508-4.023 2.17 1.253 5.012-8.681-2.171-1.253-5.011 8.681zm-0.136-14.751-8.686 5.014 1.254 2.171 8.684-5.014-1.252-2.171z"/>
<rect height="77.006" width="77" y="-8.466" x="-13.149" fill="none"/>
</svg>
