<?xml version="1.0" encoding="UTF-8" standalone="no"?>
<!DOCTYPE svg  PUBLIC '-//W3C//DTD SVG 1.1//EN'  'http://www.w3.org/Graphics/SVG/1.1/DTD/svg11.dtd'>
<svg xmlns="http://www.w3.org/2000/svg" xml:space="preserve" height="74.699px" viewBox="0 0 147.367 74.699" width="147.37px" version="1.1" y="0px" x="0px" xmlns:xlink="http://www.w3.org/1999/xlink" enable-background="new 0 0 147.367 74.699">
<g transform="translate(-21.91 -49.699)">
		<path d="m121.69 49.699l47.59 37.35-47.59 37.35v-16.87h-34.34l2.469-9.382-4.692-10.818 4.198-10.123-1.975-10.64h34.445l-0.11-16.868z"/>
		<path d="m66.622 65.725h7.499l3.247 9.315-5.584 11.766 5.967 11.767-3.543 8.58h-7.942l4.978-8.883-5.833-11.521 5.406-11.708-4.195-9.313z"/>
		<path d="m48.925 65.801h4.677l2.406 9.315-4.207 11.766 4.256 11.767-2.402 8.579h-4.954l3.903-8.579-4.589-11.521 4.095-12.011-3.185-9.318z"/>
		<path d="m34.025 65.619h3.298l2.634 9.383-4.171 11.852 3.866 11.852-2.291 8.642h-3.493l2.166-8.642-3.221-11.605 3.905-12.099-2.693-9.385z"/>
		<path d="m21.91 65.514h1.24l-0.01 9.515-0.013 11.72 0.005 11.851 0.035 8.51h-1.197l0.046-8.378-0.106-11.736 0.011-11.967-0.011-9.515z"/>
</g>
</svg>
